# xmcd CD database file
#
# Track frame offsets:
#	150
#	12491
#	30380
#	45931
#
# Disc length: 755 seconds
#
# Revision: 0
# Processed by: cddbd v1.4PL0 Copyright (c) Steve Scherf et al.
# Submitted via: CDex 1.51
#
DISCID=2102f104
DTITLE=The J. Michael Hester Band - Merry Blue Christmas
DYEAR=2003
DGENRE=Blues
TTITLE0=Santa's Coming
TTITLE1=Mr. Grinch
TTITLE2=Please Come Home For Christmas
TTITLE3=What Child Is This?
EXTD=YEAR: 2003
EXTT0=
EXTT1=
EXTT2=
EXTT3=
PLAYORDER=
